<?xml version="1.0" standalone="no"?>
<!DOCTYPE svg PUBLIC "-//W3C//DTD SVG 20010904//EN"
 "http://www.w3.org/TR/2001/REC-SVG-20010904/DTD/svg10.dtd">
<svg version="1.0" xmlns="http://www.w3.org/2000/svg"
 width="700.000000pt" height="700.000000pt" viewBox="0 0 700.000000 700.000000"
 preserveAspectRatio="xMidYMid meet">
<metadata>
Created by potrace 1.11, written by Peter Selinger 2001-2013
</metadata>
<g transform="translate(0.000000,700.000000) scale(0.100000,-0.100000)"
fill="#000000" stroke="none">
<path d="M3473 6723 c-31 -6 -70 -48 -77 -84 -3 -18 -6 -340 -6 -716 l0 -685
-240 -239 c-212 -212 -243 -239 -272 -240 -18 0 -482 -1 -1030 -1 -712 -1
-1004 -4 -1020 -12 -20 -10 -119 -151 -246 -353 -23 -37 -82 -130 -130 -205
-48 -76 -156 -247 -241 -380 -85 -134 -167 -263 -183 -288 -22 -35 -28 -53
-24 -80 12 -87 41 -103 196 -106 63 -1 117 -2 120 -3 3 0 5 -639 5 -1418 l0
-1418 -45 -2 c-25 -1 -82 -2 -127 -2 -76 -1 -85 -3 -114 -29 -50 -45 -46 -132
9 -169 26 -17 159 -18 3448 -18 2985 0 3424 2 3448 15 62 32 70 124 16 173
-33 29 -34 29 -197 27 l-93 -1 0 1423 0 1424 116 -1 c69 0 127 4 144 11 35 15
62 54 65 94 3 38 17 14 -410 685 -121 190 -256 403 -301 473 -57 89 -90 132
-112 143 -28 14 -135 16 -1055 16 l-1024 0 -242 241 -241 240 0 196 c0 180 1
196 18 197 9 0 238 1 509 2 479 2 492 3 519 23 38 28 55 80 39 120 -7 16 -52
90 -100 162 l-87 132 96 146 c100 152 110 180 83 234 -28 57 -39 58 -510 59
-238 0 -462 0 -499 1 l-68 0 0 61 c0 34 -7 75 -15 94 -21 43 -72 67 -122 58z"/>
</g>
</svg>
